<svg id="svg" xmlns="http://www.w3.org/2000/svg" xmlns:xlink="http://www.w3.org/1999/xlink" width="400" height="249.82456140350877" viewBox="0, 0, 400,249.82456140350877"><g id="svgg"><path id="path0" d="M182.456 2.455 C 136.967 29.097,139.814 236.287,185.847 249.187 C 194.536 251.622,241.873 247.555,269.123 242.033 C 360.875 223.440,411.358 169.293,397.242 104.616 C 384.053 44.185,307.259 3.102,203.509 0.972 L 185.614 0.605 182.456 2.455 M0.468 2.573 C 0.211 2.830,-0.000 8.673,-0.000 15.556 L 0.000 28.070 69.084 28.070 L 138.168 28.070 141.006 19.094 C 142.567 14.157,144.930 8.315,146.257 6.111 L 148.670 2.105 74.803 2.105 C 34.176 2.105,0.725 2.316,0.468 2.573 M230.877 24.486 C 324.427 34.414,379.543 74.095,376.629 129.419 C 373.625 186.455,296.292 228.070,193.305 228.070 C 187.346 228.070,177.541 196.582,173.749 165.263 C 167.566 114.210,173.915 55.257,188.631 27.091 L 191.159 22.251 204.527 22.679 C 211.879 22.915,223.737 23.728,230.877 24.486 M233.400 73.158 C 228.806 85.991,222.604 103.281,219.620 111.579 C 201.040 163.238,195.789 178.051,195.789 178.817 C 195.789 179.475,199.135 179.633,209.994 179.488 L 224.199 179.298 228.477 166.316 L 232.756 153.333 256.635 153.149 C 275.226 153.005,280.661 153.161,281.177 153.851 C 281.541 154.338,283.002 158.684,284.424 163.509 C 285.846 168.333,287.497 173.939,288.093 175.965 L 289.177 179.649 303.969 179.649 C 317.719 179.649,318.736 179.563,318.417 178.421 C 318.228 177.746,310.742 156.351,301.783 130.877 C 292.823 105.404,282.770 76.746,279.443 67.193 L 273.393 49.825 257.574 49.825 L 241.754 49.826 233.400 73.158 M0.000 69.825 L 0.000 82.807 63.107 82.807 L 126.215 82.807 126.625 78.772 C 127.052 74.573,128.897 62.124,129.590 58.772 L 129.988 56.842 64.994 56.842 L 0.000 56.842 0.000 69.825 M258.555 81.228 C 258.809 82.289,262.159 93.454,266.000 106.038 C 269.840 118.622,272.982 129.280,272.982 129.722 C 272.982 130.568,241.359 130.950,240.523 130.114 C 240.033 129.624,256.988 79.301,257.643 79.299 C 257.891 79.299,258.301 80.167,258.555 81.228 M0.313 111.775 C 0.122 112.273,0.052 118.196,0.158 124.937 L 0.351 137.193 62.105 137.193 L 123.860 137.193 123.860 124.211 L 123.860 111.228 62.260 111.049 C 12.466 110.904,0.594 111.043,0.313 111.775 M0.160 177.719 L 0.351 190.526 65.176 190.705 L 130.001 190.885 129.515 188.600 C 128.256 182.684,126.316 170.855,126.316 169.095 C 126.316 164.554,131.756 164.912,62.716 164.912 L -0.032 164.912 0.160 177.719 M0.313 219.846 C 0.122 220.344,0.052 226.266,0.158 233.007 L 0.351 245.263 74.912 245.442 C 124.495 245.561,149.474 245.384,149.474 244.915 C 149.474 244.528,149.173 244.211,148.806 244.211 C 147.219 244.211,143.290 236.866,140.359 228.421 L 137.193 219.298 68.927 219.119 C 13.701 218.975,0.594 219.113,0.313 219.846 " stroke="none" fill="#ffffff" fill-rule="evenodd"></path></g></svg>